<svg width="60" height="60" viewBox="0 0 60 60" fill="none" xmlns="http://www.w3.org/2000/svg">
<path d="M48 17H35C34.3686 16.9685 6.72936e-05 3.02979 6.72936e-05 3.02979C6.72936e-05 3.02979 0.000998618 5.77865 6.46412e-05 6.43283L6.10352e-05 55L35 41.9557V55L45.5 58L48 41.9557C51.2858 41.7354 54.5255 40.2253 56.7319 37.7959C58.9384 35.3666 60.1075 32.1798 59.9922 28.9094C59.8769 25.639 58.4861 22.5413 56.1139 20.2714C53.7418 18.0014 51.2932 16.9913 48 17ZM35 40L2 52V6L35 19.0377V40ZM44 55L37 53L36.8994 41.9557H46L44 55ZM48 40H36.8994L36.9022 19.0377L48 19C50.7526 19 52.6735 20.1243 54.6198 22.0584C56.5662 23.9925 57.6597 26.6156 57.6597 29.3508C57.6597 32.086 56.5662 34.7092 54.6198 36.6433C52.6735 38.5774 50.7526 40 48 40Z" fill="#20201E"/>
</svg>
