<svg width="60" height="60" viewBox="0 0 60 60" fill="none" xmlns="http://www.w3.org/2000/svg">
<g clip-path="url(#clip0_284_58)">
<mask id="path-1-inside-1_284_58" fill="white">
<path fill-rule="evenodd" clip-rule="evenodd" d="M14.01 56.3881C5.59175 51.0749 -1.77864e-06 41.6905 -1.31134e-06 31C-5.87108e-07 14.4315 13.4315 0.999998 30 0.999999C46.5685 0.999999 60 14.4315 60 31C60 41.3901 54.7181 50.5465 46.6929 55.9306L38.5198 43.3472C42.4349 40.6406 45 36.1199 45 31C45 22.7157 38.2843 16 30 16C21.7157 16 15 22.7157 15 31C15 36.4203 17.8749 41.1691 22.1831 43.8047L14.01 56.3881Z"/>
</mask>
<path d="M14.01 56.3881L12.9425 58.0794L14.6119 59.133L15.6872 57.4775L14.01 56.3881ZM46.6929 55.9306L45.0156 57.02L46.1214 58.7224L47.8072 57.5914L46.6929 55.9306ZM38.5198 43.3472L37.3824 41.7021L35.7841 42.8071L36.8425 44.4367L38.5198 43.3472ZM22.1831 43.8047L23.8604 44.8941L24.9796 43.1709L23.2268 42.0987L22.1831 43.8047ZM-2 31C-2 42.4053 3.96824 52.4153 12.9425 58.0794L15.0774 54.6967C7.21525 49.7345 2 40.9756 2 31L-2 31ZM30 -1C12.3269 -1 -2 13.3269 -2 31L2 31C2 15.536 14.536 3 30 3L30 -1ZM62 31C62 13.3269 47.6731 -1 30 -1L30 3C45.464 3 58 15.536 58 31L62 31ZM47.8072 57.5914C56.3623 51.8518 62 42.0846 62 31L58 31C58 40.6955 53.0738 49.2412 45.5786 54.2697L47.8072 57.5914ZM36.8425 44.4367L45.0156 57.02L48.3701 54.8412L40.197 42.2578L36.8425 44.4367ZM39.6571 44.9924C44.0893 41.9283 47 36.8043 47 31L43 31C43 35.4355 40.7805 39.353 37.3824 41.7021L39.6571 44.9924ZM47 31C47 21.6112 39.3888 14 30 14L30 18C37.1797 18 43 23.8203 43 31L47 31ZM30 14C20.6112 14 13 21.6112 13 31L17 31C17 23.8203 22.8203 18 30 18L30 14ZM13 31C13 37.1453 16.262 42.5269 21.1394 45.5108L23.2268 42.0987C19.4879 39.8112 17 35.6953 17 31L13 31ZM15.6872 57.4775L23.8604 44.8941L20.5058 42.7153L12.3327 55.2986L15.6872 57.4775Z" fill="white" mask="url(#path-1-inside-1_284_58)"/>
</g>
<defs>
<clipPath id="clip0_284_58">
<rect width="60" height="60" fill="white"/>
</clipPath>
</defs>
</svg>
