<svg width="60" height="60" viewBox="0 0 60 60" fill="none" xmlns="http://www.w3.org/2000/svg">
<g clip-path="url(#clip0_284_46)">
<mask id="path-1-inside-1_284_46" fill="white">
<path fill-rule="evenodd" clip-rule="evenodd" d="M4.00001 14.01C9.31316 5.59174 18.6976 -3.55727e-06 29.3881 -2.62268e-06C45.9566 -1.17422e-06 59.3881 13.4315 59.3881 30C59.3881 46.5685 45.9566 60 29.3881 60C18.998 60 9.84158 54.7181 4.45747 46.6929L17.0408 38.5198C19.7474 42.4349 24.2682 45 29.3881 45C37.6723 45 44.3881 38.2843 44.3881 30C44.3881 21.7157 37.6723 15 29.3881 15C23.9678 15 19.219 17.8749 16.5834 22.1831L4.00001 14.01Z"/>
</mask>
<path d="M4.00001 14.01L2.3087 12.9425L1.25505 14.6119L2.9106 15.6872L4.00001 14.01ZM4.45747 46.6929L3.36806 45.0156L1.66564 46.1214L2.79662 47.8072L4.45747 46.6929ZM17.0408 38.5198L18.686 37.3824L17.581 35.7841L15.9514 36.8425L17.0408 38.5198ZM16.5834 22.1831L15.4939 23.8604L17.2171 24.9796L18.2894 23.2268L16.5834 22.1831ZM29.3881 -2C17.9827 -2 7.9728 3.96824 2.3087 12.9425L5.69131 15.0774C10.6535 7.21525 19.4125 2 29.3881 2L29.3881 -2ZM61.3881 30C61.3881 12.3269 47.0612 -2 29.3881 -2L29.3881 2C44.852 2 57.3881 14.536 57.3881 30L61.3881 30ZM29.3881 62C47.0612 62 61.3881 47.6731 61.3881 30L57.3881 30C57.3881 45.464 44.852 58 29.3881 58L29.3881 62ZM2.79662 47.8072C8.53629 56.3623 18.3034 62 29.3881 62L29.3881 58C19.6926 58 11.1469 53.0738 6.11832 45.5786L2.79662 47.8072ZM15.9514 36.8425L3.36806 45.0156L5.54688 48.3701L18.1302 40.197L15.9514 36.8425ZM15.3957 39.6571C18.4598 44.0893 23.5838 47 29.3881 47L29.3881 43C24.9526 43 21.0351 40.7805 18.686 37.3824L15.3957 39.6571ZM29.3881 47C38.7769 47 46.3881 39.3888 46.3881 30L42.3881 30C42.3881 37.1797 36.5678 43 29.3881 43L29.3881 47ZM46.3881 30C46.3881 20.6112 38.7769 13 29.3881 13L29.3881 17C36.5678 17 42.3881 22.8203 42.3881 30L46.3881 30ZM29.3881 13C23.2428 13 17.8612 16.262 14.8773 21.1394L18.2894 23.2268C20.5768 19.4879 24.6928 17 29.3881 17L29.3881 13ZM2.9106 15.6872L15.4939 23.8604L17.6728 20.5058L5.08942 12.3327L2.9106 15.6872Z" fill="white" mask="url(#path-1-inside-1_284_46)"/>
</g>
<defs>
<clipPath id="clip0_284_46">
<rect width="60" height="60" fill="white"/>
</clipPath>
</defs>
</svg>
