<svg width="60" height="60" viewBox="0 0 60 60" fill="none" xmlns="http://www.w3.org/2000/svg">
<g clip-path="url(#clip0_284_70)">
<path fill-rule="evenodd" clip-rule="evenodd" d="M45.99 4C54.4083 9.31316 60 18.6976 60 29.3881C60 45.9566 46.5685 59.3881 30 59.3881C13.4315 59.3881 -5.87108e-07 45.9566 -1.31134e-06 29.3881C-1.76551e-06 18.998 5.28192 9.84158 13.3071 4.45747L21.4802 17.0408C17.5651 19.7474 15 24.2682 15 29.3881C15 37.6723 21.7157 44.3881 30 44.3881C38.2843 44.3881 45 37.6723 45 29.3881C45 23.9678 42.1251 19.219 37.8169 16.5833L45.99 4Z" fill="white"/>
</g>
<defs>
<clipPath id="clip0_284_70">
<rect width="60" height="60" fill="white"/>
</clipPath>
</defs>
</svg>
