<svg width="60" height="60" viewBox="0 0 60 60" fill="none" xmlns="http://www.w3.org/2000/svg">
<g clip-path="url(#clip0_232_11)">
<path fill-rule="evenodd" clip-rule="evenodd" d="M30 60C46.5685 60 60 46.5685 60 30C60 13.4315 46.5685 0 30 0C13.4315 0 0 13.4315 0 30C0 46.5685 13.4315 60 30 60ZM30 52.8C42.5921 52.8 52.8 42.5921 52.8 30C52.8 17.4079 42.5921 7.2 30 7.2C17.4079 7.2 7.20001 17.4079 7.20001 30C7.20001 42.5921 17.4079 52.8 30 52.8Z" fill="#0085FF"/>
<path fill-rule="evenodd" clip-rule="evenodd" d="M30 43.2C37.2901 43.2 43.2 37.2902 43.2 30C43.2 22.7098 37.2901 16.8 30 16.8C22.7098 16.8 16.8 22.7098 16.8 30C16.8 37.2902 22.7098 43.2 30 43.2ZM30 36.6C33.6451 36.6 36.6 33.6451 36.6 30C36.6 26.3549 33.6451 23.4 30 23.4C26.3549 23.4 23.4 26.3549 23.4 30C23.4 33.6451 26.3549 36.6 30 36.6Z" fill="#0085FF"/>
<rect x="27" y="4.8" width="6" height="15.6" fill="#0085FF"/>
<rect x="27" y="39.6" width="6" height="14.4" fill="#0085FF"/>
<rect x="55.2" y="27" width="6" height="15.6" transform="rotate(90 55.2 27)" fill="#0085FF"/>
<rect x="20.4" y="27" width="6" height="15.6" transform="rotate(90 20.4 27)" fill="#0085FF"/>
<rect x="24.8735" y="20.6309" width="6" height="15.6" transform="rotate(135 24.8735 20.6309)" fill="#0085FF"/>
<rect x="39.0426" y="24.8735" width="6" height="15.6" transform="rotate(-135 39.0426 24.8735)" fill="#0085FF"/>
<rect x="34.8" y="39.0426" width="6" height="15.6" transform="rotate(-45 34.8 39.0426)" fill="#0085FF"/>
<rect x="20.6309" y="34.8" width="6" height="15.6" transform="rotate(45 20.6309 34.8)" fill="#0085FF"/>
</g>
<defs>
<clipPath id="clip0_232_11">
<rect width="60" height="60" fill="white"/>
</clipPath>
</defs>
</svg>
