<svg width="60" height="60" viewBox="0 0 60 60" fill="none" xmlns="http://www.w3.org/2000/svg">
<g clip-path="url(#clip0_250_28)">
<path d="M27.2667 0V5.4C22.538 5.94667 18.2193 7.86 14.6933 10.7027L10.8667 6.66667L7.06667 10.7333L10.8667 14.5567C7.87128 18.1863 5.9747 22.5959 5.4 27.2667H0V32.7333H5.4C5.974 37.3253 7.86 41.644 10.8667 45.1973L6.66667 49.3333L10 53.3333L14.666 49.1333C18.285 52.0773 22.6444 53.9686 27.2667 54.6V60H32.7333V54.6C37.3472 53.9679 41.6976 52.0764 45.3067 49.1333L49.3333 53.3333L53.3333 49.3333L49.1333 45.2247C52.14 41.6713 54.026 37.3253 54.6 32.7333H60V27.2667H54.6C54.0262 22.6038 52.1292 18.2028 49.1333 14.584L53.3333 10.6667L49.1333 6.66667L45.334 10.7027C41.7191 7.78008 37.3502 5.94152 32.7333 5.4V0H27.2667ZM27.2667 10.8667V19.0667L24.5333 20.4333L18.5473 14.5567C21.0347 12.698 24.014 11.3313 27.2667 10.8667ZM32.7333 10.8667C35.904 11.3587 38.9107 12.616 41.48 14.5567L35.4667 20.4333L32.7333 19.0667V10.8667ZM14.6933 18.4107L20.4333 24.5333L19.0667 27.2667H10.8667C11.304 24.096 12.78 20.98 14.666 18.3833L14.6933 18.4107ZM45.3067 18.4107C47.302 21.0073 48.614 24.0413 49.1333 27.2667H40.9333L39.5667 24.5333L45.334 18.4107H45.3067ZM30 24.5333C33.0613 24.5333 35.4667 26.9387 35.4667 30C35.4667 33.0613 33.0613 35.4667 30 35.4667C26.9387 35.4667 24.5333 33.0613 24.5333 30C24.5333 26.9387 26.9387 24.5333 30 24.5333ZM10.8667 32.7333H19.0667L20.6247 35.4667L14.666 41.3433C12.698 38.856 11.386 35.904 10.8667 32.7333ZM40.9333 32.7333H49.1333C48.6078 35.8845 47.3017 38.8539 45.334 41.3707L39.5667 35.4667L40.9333 32.7333ZM24.5333 39.5667L27.2667 40.9333V49.1333C24.0682 48.5887 21.0594 47.2441 18.52 45.2247L24.5333 39.5667ZM35.4667 39.5667L41.4527 45.2247C38.9653 47.0833 35.986 48.6687 32.7333 49.1333V40.9333L35.4667 39.5667Z" fill="white"/>
</g>
<defs>
<clipPath id="clip0_250_28">
<rect width="60" height="60" fill="white"/>
</clipPath>
</defs>
</svg>
