<svg width="60" height="60" viewBox="0 0 60 60" fill="none" xmlns="http://www.w3.org/2000/svg">
<path d="M42.3064 38.5729L42.306 38.5739C41.1723 41.2632 39.638 43.5919 37.7049 45.5697C35.772 47.5472 33.497 49.115 30.8714 50.2732C28.2653 51.4228 25.4783 52 22.5 52C21.244 52 20.0216 51.8902 18.8318 51.6717C18.1738 51.55 17.5263 51.3847 16.8891 51.1756C19.5763 48.654 21.7092 45.7071 23.2834 42.3401C25.0949 38.4653 26 34.3483 26 30C26 25.6517 25.0949 21.5347 23.2834 17.6599C21.7092 14.2928 19.5763 11.3452 16.889 8.82236C17.5258 8.61377 18.1729 8.44925 18.8305 8.32858L18.831 8.32849C20.0192 8.10986 21.2419 8 22.5 8C25.4801 8 28.2669 8.57726 30.8712 9.72674C33.4957 10.8852 35.7712 12.4509 37.706 14.4238C39.64 16.3959 41.1739 18.7222 42.3057 21.4127C43.4302 24.0856 43.9968 26.9426 44 29.9934C44.0032 33.0427 43.4369 35.8993 42.3064 38.5729Z" stroke="white" stroke-width="2"/>
</svg>
