<svg width="60" height="60" viewBox="0 0 60 60" fill="none" xmlns="http://www.w3.org/2000/svg">
<path d="M22.5 7C25.6133 7 28.5383 7.60396 31.275 8.81189C34.0117 10.0198 36.3933 11.6571 38.42 13.7237C40.4467 15.7903 42.0492 18.224 43.2275 21.0249C44.4058 23.8258 44.9967 26.8149 45 29.9923C45.0033 33.1697 44.4125 36.1597 43.2275 38.9623C42.0475 41.7615 40.445 44.197 38.42 46.2687C36.395 48.3404 34.0133 49.9802 31.275 51.1881C28.5367 52.396 25.6117 53 22.5 53C21.185 53 19.9017 52.885 18.65 52.655C17.3967 52.4233 16.18 52.0434 15 51.5152C18.17 48.8557 20.6292 45.6562 22.3775 41.9166C24.1258 38.1769 25 34.2047 25 30C25 25.7953 24.1258 21.8231 22.3775 18.0834C20.6292 14.3438 18.17 11.1434 15 8.48222C16.18 7.95407 17.3967 7.575 18.65 7.345C19.9 7.115 21.1833 7 22.5 7Z" fill="white"/>
</svg>
