<svg width="60" height="60" viewBox="0 0 60 60" fill="none" xmlns="http://www.w3.org/2000/svg">
<g clip-path="url(#clip0_327_2)">
<path d="M6.66666 53.3333H11.4167L44 20.75L39.25 16L6.66666 48.5833V53.3333ZM0 60V45.8333L44 1.91667C44.6666 1.30556 45.4033 0.833334 46.21 0.5C47.0166 0.166667 47.8633 0 48.75 0C49.6366 0 50.4978 0.166667 51.3333 0.5C52.1689 0.833334 52.8911 1.33333 53.5 2L58.0833 6.66667C58.75 7.27778 59.2366 8 59.5433 8.83333C59.85 9.66667 60.0022 10.5 60 11.3333C60 12.2222 59.8478 13.07 59.5433 13.8767C59.2389 14.6833 58.7522 15.4189 58.0833 16.0833L14.1667 60H0ZM41.5833 18.4167L39.25 16L44 20.75L41.5833 18.4167Z" fill="#20201E"/>
</g>
<defs>
<clipPath id="clip0_327_2">
<rect width="60" height="60" fill="white"/>
</clipPath>
</defs>
</svg>
