<svg width="60" height="60" viewBox="0 0 60 60" fill="none" xmlns="http://www.w3.org/2000/svg">
<path d="M52.1667 41.0526V50.5263C52.1667 52.2632 50.7417 53.6842 49 53.6842H45.8333V41.0526H52.1667ZM14.1667 41.0526V53.6842H11C9.25833 53.6842 7.83333 52.2632 7.83333 50.5263V41.0526H14.1667ZM30 0C22.4413 0 15.1922 2.99435 9.84746 8.32433C4.50267 13.6543 1.5 20.8833 1.5 28.4211V50.5263C1.5 55.7684 5.74333 60 11 60H20.5V34.7368H7.83333V28.4211C7.83333 16.2 17.745 6.31579 30 6.31579C42.255 6.31579 52.1667 16.2 52.1667 28.4211V34.7368H39.5V60H49C54.2567 60 58.5 55.7684 58.5 50.5263V28.4211C58.5 20.8833 55.4973 13.6543 50.1525 8.32433C44.8078 2.99435 37.5587 0 30 0Z" fill="white"/>
</svg>
