<svg width="74" height="21" viewBox="0 0 74 21" fill="none" xmlns="http://www.w3.org/2000/svg">
<path d="M2.8 12.624C3.16267 13.3173 3.55733 13.8187 3.984 14.128C4.42133 14.4267 4.87467 14.576 5.344 14.576C6.05867 14.576 6.60267 14.4267 6.976 14.128C7.34933 13.8187 7.536 13.4027 7.536 12.88C7.536 12.56 7.43467 12.288 7.232 12.064C7.02933 11.84 6.77333 11.6587 6.464 11.52C6.16533 11.3707 5.744 11.2 5.2 11.008C4.45333 10.7413 3.84 10.4853 3.36 10.24C2.89067 9.984 2.48533 9.62667 2.144 9.168C1.81333 8.69867 1.648 8.096 1.648 7.36C1.648 6.688 1.81333 6.112 2.144 5.632C2.48533 5.14133 2.94933 4.76267 3.536 4.496C4.13333 4.22933 4.816 4.10133 5.584 4.112C6.08533 4.112 6.58133 4.21333 7.072 4.416C7.56267 4.61867 8.01067 4.93333 8.416 5.36C8.832 5.776 9.15733 6.304 9.392 6.944L7.568 7.6C7.33333 6.992 7.04 6.55467 6.688 6.288C6.34667 6.02133 5.97333 5.88267 5.568 5.872C5.184 5.872 4.848 5.936 4.56 6.064C4.28267 6.192 4.06933 6.368 3.92 6.592C3.78133 6.80533 3.712 7.06133 3.712 7.36C3.712 7.68 3.81333 7.95733 4.016 8.192C4.21867 8.416 4.47467 8.608 4.784 8.768C5.104 8.91733 5.536 9.09333 6.08 9.296C6.82667 9.59467 7.42933 9.872 7.888 10.128C8.35733 10.3733 8.75733 10.7253 9.088 11.184C9.41867 11.632 9.584 12.2027 9.584 12.896C9.584 13.5787 9.408 14.1813 9.056 14.704C8.71467 15.216 8.224 15.6213 7.584 15.92C6.944 16.208 6.192 16.3467 5.328 16.336C4.464 16.336 3.67467 16.096 2.96 15.616C2.24533 15.136 1.632 14.4587 1.12 13.584L2.8 12.624ZM14.9472 14.528C15.3099 14.528 15.6246 14.4427 15.8913 14.272C16.1686 14.0907 16.3766 13.8347 16.5153 13.504C16.6646 13.1627 16.7393 12.768 16.7393 12.32C16.7393 11.872 16.6646 11.4827 16.5153 11.152C16.3766 10.8107 16.1686 10.5493 15.8913 10.368C15.6246 10.1867 15.3099 10.096 14.9472 10.096C14.5952 10.096 14.2699 10.1973 13.9713 10.4C13.6832 10.592 13.4539 10.8587 13.2833 11.2C13.1126 11.5413 13.0273 11.9147 13.0273 12.32C13.0273 12.7253 13.1126 13.0987 13.2833 13.44C13.4539 13.7813 13.6832 14.048 13.9713 14.24C14.2699 14.432 14.5952 14.528 14.9472 14.528ZM15.1712 8.4C15.8859 8.4 16.5153 8.57067 17.0593 8.912C17.6139 9.24267 18.0406 9.70667 18.3393 10.304C18.6486 10.8907 18.8033 11.5627 18.8033 12.32C18.8033 13.088 18.6486 13.7707 18.3393 14.368C18.0406 14.9547 17.6139 15.4133 17.0593 15.744C16.5153 16.0747 15.8859 16.24 15.1712 16.24C14.9899 16.24 14.7713 16.208 14.5153 16.144C14.2593 16.08 13.9926 15.9627 13.7153 15.792C13.4379 15.6213 13.1979 15.392 12.9952 15.104L13.0273 14.832V19.568H10.9632V8.416H13.0273V9.744L12.9952 9.536C13.2832 9.14133 13.6406 8.85333 14.0673 8.672C14.5046 8.49067 14.8726 8.4 15.1712 8.4ZM23.2267 16.24C22.4907 16.24 21.8347 16.0747 21.2587 15.744C20.6934 15.4133 20.2507 14.9547 19.9307 14.368C19.6107 13.7707 19.4507 13.0987 19.4507 12.352C19.4507 11.584 19.6107 10.9067 19.9307 10.32C20.2507 9.72267 20.6934 9.25867 21.2587 8.928C21.8347 8.59733 22.4907 8.432 23.2267 8.432C24.1974 8.432 24.9334 8.66667 25.4348 9.136C25.9361 9.60533 26.2827 10.0587 26.4748 10.496L26.4907 10.528C26.6721 10.9227 26.7787 11.3333 26.8108 11.76C26.8428 12.1867 26.8481 12.5867 26.8267 12.96V13.088H21.4187C21.4827 13.3653 21.6054 13.616 21.7867 13.84C21.9681 14.0533 22.1867 14.224 22.4427 14.352C22.6987 14.4693 22.9601 14.528 23.2267 14.528C23.6747 14.528 24.0321 14.448 24.2987 14.288C24.5654 14.128 24.7574 13.952 24.8748 13.76L24.9067 13.712L26.5868 14.384C26.3734 14.896 25.9787 15.3333 25.4028 15.696C24.8267 16.0587 24.1014 16.24 23.2267 16.24ZM24.9227 11.696C24.8587 11.3867 24.7574 11.1147 24.6188 10.88C24.4801 10.6453 24.2934 10.464 24.0587 10.336C23.8241 10.208 23.5467 10.144 23.2267 10.144C22.7681 10.144 22.3734 10.288 22.0427 10.576C21.7227 10.8533 21.5147 11.2267 21.4187 11.696H24.9227ZM31.3955 16.24C30.6595 16.24 30.0035 16.0747 29.4275 15.744C28.8622 15.4133 28.4195 14.9547 28.0995 14.368C27.7795 13.7707 27.6195 13.0987 27.6195 12.352C27.6195 11.584 27.7795 10.9067 28.0995 10.32C28.4195 9.72267 28.8622 9.25867 29.4275 8.928C30.0035 8.59733 30.6595 8.432 31.3955 8.432C32.3662 8.432 33.1022 8.66667 33.6035 9.136C34.1048 9.60533 34.4515 10.0587 34.6435 10.496L34.6595 10.528C34.8408 10.9227 34.9475 11.3333 34.9795 11.76C35.0115 12.1867 35.0168 12.5867 34.9955 12.96V13.088H29.5875C29.6515 13.3653 29.7742 13.616 29.9555 13.84C30.1368 14.0533 30.3555 14.224 30.6115 14.352C30.8675 14.4693 31.1288 14.528 31.3955 14.528C31.8435 14.528 32.2008 14.448 32.4675 14.288C32.7342 14.128 32.9262 13.952 33.0435 13.76L33.0755 13.712L34.7555 14.384C34.5422 14.896 34.1475 15.3333 33.5715 15.696C32.9955 16.0587 32.2702 16.24 31.3955 16.24ZM33.0915 11.696C33.0275 11.3867 32.9262 11.1147 32.7875 10.88C32.6488 10.6453 32.4622 10.464 32.2275 10.336C31.9928 10.208 31.7155 10.144 31.3955 10.144C30.9368 10.144 30.5422 10.288 30.2115 10.576C29.8915 10.8533 29.6835 11.2267 29.5875 11.696H33.0915ZM39.4202 16.256C38.7056 16.256 38.0709 16.0907 37.5162 15.76C36.9722 15.4293 36.5456 14.9707 36.2362 14.384C35.9376 13.7867 35.7882 13.104 35.7882 12.336C35.7882 11.5787 35.9376 10.9067 36.2362 10.32C36.5456 9.72267 36.9722 9.25867 37.5162 8.928C38.0709 8.58667 38.7056 8.416 39.4202 8.416C39.7509 8.416 40.1189 8.496 40.5242 8.656C40.9402 8.816 41.3029 9.11467 41.6122 9.552L41.5802 9.792V4.656H43.6442V16.224H41.5802V15.024L41.6122 15.136C41.3029 15.5413 40.9349 15.8293 40.5082 16C40.0816 16.1707 39.7189 16.256 39.4202 16.256ZM39.6442 14.592C40.0069 14.592 40.3322 14.496 40.6202 14.304C40.9082 14.112 41.1376 13.8453 41.3082 13.504C41.4896 13.1627 41.5802 12.7893 41.5802 12.384C41.5802 11.968 41.4896 11.5893 41.3082 11.248C41.1376 10.9067 40.9029 10.64 40.6042 10.448C40.3162 10.256 39.9962 10.16 39.6442 10.16C39.2816 10.16 38.9616 10.2507 38.6842 10.432C38.4176 10.6133 38.2096 10.8693 38.0602 11.2C37.9216 11.5307 37.8522 11.9253 37.8522 12.384C37.8522 12.832 37.9216 13.2213 38.0602 13.552C38.2096 13.8827 38.4176 14.1387 38.6842 14.32C38.9616 14.5013 39.2816 14.592 39.6442 14.592Z" fill="#20201E"/>
<path d="M50.128 19.456L51.84 15.456L48.736 8.48H50.768L52.8 13.376L54.768 8.48H56.768L53.888 15.344L52.144 19.456H50.128ZM60.4166 14.672C60.79 14.672 61.1153 14.576 61.3926 14.384C61.6806 14.192 61.8993 13.9253 62.0486 13.584C62.2086 13.232 62.2886 12.8213 62.2886 12.352C62.2886 11.8827 62.2086 11.472 62.0486 11.12C61.8993 10.768 61.6806 10.5013 61.3926 10.32C61.1153 10.128 60.79 10.032 60.4166 10.032C60.0433 10.032 59.7126 10.128 59.4246 10.32C59.1366 10.5013 58.9126 10.768 58.7526 11.12C58.6033 11.472 58.5286 11.8827 58.5286 12.352C58.5286 12.8213 58.6033 13.232 58.7526 13.584C58.9126 13.9253 59.1366 14.192 59.4246 14.384C59.7126 14.576 60.0433 14.672 60.4166 14.672ZM60.4006 8.464C61.1366 8.464 61.782 8.62933 62.3366 8.96C62.902 9.29067 63.3446 9.74933 63.6646 10.336C63.9846 10.9227 64.1446 11.5893 64.1446 12.336C64.1446 13.0827 63.9846 13.7547 63.6646 14.352C63.3446 14.9387 62.902 15.3973 62.3366 15.728C61.782 16.0587 61.1366 16.224 60.4006 16.224C59.686 16.224 59.046 16.0587 58.4806 15.728C57.926 15.3973 57.4886 14.9387 57.1686 14.352C56.8486 13.7547 56.6886 13.0827 56.6886 12.336C56.6886 11.5893 56.8486 10.9227 57.1686 10.336C57.4886 9.74933 57.926 9.29067 58.4806 8.96C59.046 8.62933 59.686 8.464 60.4006 8.464ZM67.033 12.832C67.033 13.408 67.1823 13.8613 67.481 14.192C67.7903 14.512 68.1957 14.672 68.697 14.672C69.0383 14.6613 69.3423 14.5867 69.609 14.448C69.8757 14.2987 70.0783 14.0853 70.217 13.808C70.3557 13.5307 70.4197 13.2 70.409 12.816V8.48H72.265V16.176H70.409V14.928L70.617 14.976C70.4037 15.3707 70.089 15.68 69.673 15.904C69.257 16.1173 68.8303 16.224 68.393 16.224C67.7743 16.224 67.2197 16.0853 66.729 15.808C66.249 15.5307 65.8703 15.1413 65.593 14.64C65.3263 14.128 65.193 13.5413 65.193 12.88V8.48H67.033V12.832Z" fill="#20201E"/>
<circle cx="46" cy="15" r="1" fill="#20201E"/>
</svg>
