<svg width="60" height="60" viewBox="0 0 60 60" fill="none" xmlns="http://www.w3.org/2000/svg">
<g clip-path="url(#clip0_233_67)">
<rect x="2" y="2.06065" width="2" height="80.1263" transform="rotate(-45 2 2.06065)" fill="white"/>
<path fill-rule="evenodd" clip-rule="evenodd" d="M59 0.729034L58.1266 0.87347L20.6358 7.07331L19.7351 7.22226H19.6667V7.23357L19.6492 7.23647L19.6667 7.34223V8.22226V42.5554C17.7859 39.9952 14.7537 38.3334 11.3333 38.3334C5.62639 38.3334 1 42.9598 1 48.6667C1 54.3736 5.62639 59 11.3333 59C16.7029 59 21.1159 54.9044 21.6189 49.6667H21.6667V48.6809L21.6667 48.6667L21.6667 48.6525V17.2353L21.9621 17.1865L57 11.3922V36.3332C55.1193 33.7729 52.087 32.1111 48.6667 32.1111C42.9597 32.1111 38.3333 36.7375 38.3333 42.4445C38.3333 48.1514 42.9597 52.7778 48.6667 52.7778C54.1872 52.7778 58.6967 48.4487 58.9853 43H59V42.4572L59 42.4445L59 42.4318V42V39V11.0615V9.03434V3.00004V2.7562V0.729034ZM57 3.08694V9.36508L21.6667 15.2081V8.93L57 3.08694ZM48.6667 34.1111C53.2653 34.1111 56.9938 37.8359 57 42.4331V42.4559C56.9938 47.053 53.2653 50.7778 48.6667 50.7778C44.0643 50.7778 40.3333 47.0469 40.3333 42.4445C40.3333 37.8421 44.0643 34.1111 48.6667 34.1111ZM19.6667 48.6667V48.654C19.6598 44.0574 15.9315 40.3334 11.3333 40.3334C6.73096 40.3334 3 44.0643 3 48.6667C3 53.2691 6.73096 57 11.3333 57C15.9315 57 19.6598 53.276 19.6667 48.6794V48.6667Z" fill="white"/>
</g>
<defs>
<clipPath id="clip0_233_67">
<rect width="60" height="60" fill="white"/>
</clipPath>
</defs>
</svg>
