<svg width="60" height="60" viewBox="0 0 60 60" fill="none" xmlns="http://www.w3.org/2000/svg">
<g clip-path="url(#clip0_372_4)">
<circle cx="30" cy="30" r="30" fill="white"/>
<path d="M30 -1C23.8688 -1 17.8753 0.818118 12.7773 4.22444C7.67941 7.63076 3.70606 12.4723 1.35975 18.1368C-0.986569 23.8013 -1.60047 30.0344 -0.40433 36.0478C0.791812 42.0612 3.74428 47.5849 8.0797 51.9203C12.4151 56.2557 17.9388 59.2082 23.9522 60.4043C29.9656 61.6005 36.1987 60.9866 41.8632 58.6403C47.5277 56.2939 52.3692 52.3206 55.7756 47.2227C59.1819 42.1247 61 36.1312 61 30C60.991 21.7811 57.722 13.9013 51.9103 8.08966C46.0987 2.27799 38.2189 -0.990974 30 -1ZM11.6697 51.8302C13.5096 48.5904 16.1752 45.8962 19.3952 44.0219C22.6151 42.1476 26.2743 41.1601 30 41.1601C33.7257 41.1601 37.3849 42.1476 40.6048 44.0219C43.8248 45.8962 46.4904 48.5904 48.3303 51.8302C43.1995 56.1506 36.7076 58.5199 30 58.5199C23.2925 58.5199 16.8005 56.1506 11.6697 51.8302ZM50.2027 50.1097C47.1225 44.9593 42.1838 41.1868 36.4046 39.5697C39.0916 38.1407 41.2235 35.8542 42.4611 33.0739C43.6988 30.2937 43.9711 27.1793 43.2347 24.2265C42.4983 21.2736 40.7956 18.6518 38.3974 16.7782C35.9992 14.9046 33.0433 13.8868 30 13.8868C26.9567 13.8868 24.0008 14.9046 21.6026 16.7782C19.2044 18.6518 17.5017 21.2736 16.7653 24.2265C16.0289 27.1793 16.3013 30.2937 17.5389 33.0739C18.7766 35.8542 20.9084 38.1407 23.5954 39.5697C17.8162 41.1868 12.8776 44.9593 9.79731 50.1097C5.81892 46.117 3.11277 41.0351 2.02058 35.5056C0.928392 29.976 1.49913 24.2468 3.66073 19.0414C5.82234 13.836 9.47787 9.38781 14.1657 6.2585C18.8536 3.12919 24.3636 1.45909 30 1.45909C35.6364 1.45909 41.1464 3.12919 45.8343 6.2585C50.5221 9.38781 54.1777 13.836 56.3393 19.0414C58.5009 24.2468 59.0716 29.976 57.9794 35.5056C56.8872 41.0351 54.1811 46.117 50.2027 50.1097ZM30 38.68C27.7928 38.68 25.6351 38.0255 23.7998 36.7992C21.9646 35.5729 20.5342 33.83 19.6895 31.7907C18.8448 29.7515 18.6238 27.5076 19.0544 25.3428C19.4851 23.178 20.5479 21.1894 22.1087 19.6287C23.6695 18.0679 25.658 17.005 27.8228 16.5744C29.9876 16.1438 32.2315 16.3648 34.2708 17.2095C36.31 18.0542 38.0529 19.4846 39.2792 21.3198C40.5055 23.1551 41.16 25.3128 41.16 27.52C41.16 30.4798 39.9842 33.3184 37.8913 35.4113C35.7984 37.5042 32.9598 38.68 30 38.68Z" fill="#20201E"/>
</g>
<defs>
<clipPath id="clip0_372_4">
<rect width="60" height="60" fill="white"/>
</clipPath>
</defs>
</svg>
