<svg width="60" height="60" viewBox="0 0 60 60" fill="none" xmlns="http://www.w3.org/2000/svg">
<g clip-path="url(#clip0_267_37)">
<path fill-rule="evenodd" clip-rule="evenodd" d="M4.00001 14.01C9.31316 5.59174 18.6976 -3.55727e-06 29.3881 -2.62268e-06C45.9566 -1.17422e-06 59.3881 13.4315 59.3881 30C59.3881 46.5685 45.9566 60 29.3881 60C18.998 60 9.84158 54.7181 4.45747 46.6929L17.0408 38.5198C19.7474 42.4349 24.2682 45 29.3881 45C37.6723 45 44.3881 38.2843 44.3881 30C44.3881 21.7157 37.6723 15 29.3881 15C23.9678 15 19.219 17.8749 16.5834 22.1831L4.00001 14.01Z" fill="#C465FF"/>
</g>
<defs>
<clipPath id="clip0_267_37">
<rect width="60" height="60" fill="white"/>
</clipPath>
</defs>
</svg>
