<svg width="60" height="60" viewBox="0 0 60 60" fill="none" xmlns="http://www.w3.org/2000/svg">
<g clip-path="url(#clip0_267_49)">
<path fill-rule="evenodd" clip-rule="evenodd" d="M14.01 56.3881C5.59175 51.0749 -1.77864e-06 41.6905 -1.31134e-06 31C-5.87108e-07 14.4315 13.4315 0.999998 30 0.999999C46.5685 0.999999 60 14.4315 60 31C60 41.3901 54.7181 50.5465 46.6929 55.9306L38.5198 43.3472C42.4349 40.6406 45 36.1199 45 31C45 22.7157 38.2843 16 30 16C21.7157 16 15 22.7157 15 31C15 36.4203 17.8749 41.1691 22.1831 43.8047L14.01 56.3881Z" fill="#C465FF"/>
</g>
<defs>
<clipPath id="clip0_267_49">
<rect width="60" height="60" fill="white"/>
</clipPath>
</defs>
</svg>
