<svg width="60" height="60" viewBox="0 0 60 60" fill="none" xmlns="http://www.w3.org/2000/svg">
<g clip-path="url(#clip0_267_67)">
<mask id="path-1-inside-1_267_67" fill="white">
<path fill-rule="evenodd" clip-rule="evenodd" d="M45.99 4C54.4083 9.31316 60 18.6976 60 29.3881C60 45.9566 46.5685 59.3881 30 59.3881C13.4315 59.3881 -5.87108e-07 45.9566 -1.31134e-06 29.3881C-1.76551e-06 18.998 5.28192 9.84158 13.3071 4.45747L21.4802 17.0408C17.5651 19.7474 15 24.2682 15 29.3881C15 37.6723 21.7157 44.3881 30 44.3881C38.2843 44.3881 45 37.6723 45 29.3881C45 23.9678 42.1251 19.219 37.8169 16.5833L45.99 4Z"/>
</mask>
<path d="M45.99 4L47.0575 2.3087L45.3881 1.25505L44.3128 2.91059L45.99 4ZM13.3071 4.45747L14.9844 3.36806L13.8786 1.66564L12.1928 2.79662L13.3071 4.45747ZM21.4802 17.0408L22.6175 18.686L24.2159 17.581L23.1575 15.9514L21.4802 17.0408ZM37.8169 16.5833L36.1396 15.4939L35.0204 17.2171L36.7732 18.2894L37.8169 16.5833ZM62 29.3881C62 17.9827 56.0318 7.97279 47.0575 2.3087L44.9226 5.69131C52.7847 10.6535 58 19.4125 58 29.3881L62 29.3881ZM30 61.3881C47.6731 61.3881 62 47.0612 62 29.3881L58 29.3881C58 44.852 45.464 57.3881 30 57.3881L30 61.3881ZM-2 29.3881C-2 47.0612 12.3269 61.3881 30 61.3881L30 57.3881C14.536 57.3881 2 44.852 2 29.3881L-2 29.3881ZM12.1928 2.79662C3.63767 8.53629 -2 18.3034 -2 29.3881L2 29.3881C2 19.6926 6.92616 11.1469 14.4214 6.11832L12.1928 2.79662ZM23.1575 15.9514L14.9844 3.36806L11.6298 5.54688L19.803 18.1302L23.1575 15.9514ZM20.3429 15.3957C15.9107 18.4598 13 23.5838 13 29.3881L17 29.3881C17 24.9526 19.2195 21.0351 22.6175 18.686L20.3429 15.3957ZM13 29.3881C13 38.7769 20.6112 46.3881 30 46.3881L30 42.3881C22.8203 42.3881 17 36.5678 17 29.3881L13 29.3881ZM30 46.3881C39.3888 46.3881 47 38.7769 47 29.3881L43 29.3881C43 36.5678 37.1797 42.3881 30 42.3881L30 46.3881ZM47 29.3881C47 23.2428 43.738 17.8612 38.8606 14.8773L36.7732 18.2894C40.5121 20.5768 43 24.6928 43 29.3881L47 29.3881ZM44.3128 2.91059L36.1396 15.4939L39.4942 17.6728L47.6673 5.08941L44.3128 2.91059Z" fill="#C465FF" mask="url(#path-1-inside-1_267_67)"/>
</g>
<defs>
<clipPath id="clip0_267_67">
<rect width="60" height="60" fill="white"/>
</clipPath>
</defs>
</svg>
