<svg width="60" height="60" viewBox="0 0 60 60" fill="none" xmlns="http://www.w3.org/2000/svg">
<mask id="path-1-inside-1_267_55" fill="white">
<path fill-rule="evenodd" clip-rule="evenodd" d="M56.3881 45.99C51.0749 54.4083 41.6905 60 31 60C14.4315 60 1 46.5685 1 30C1 13.4315 14.4315 0 31 0C41.3901 0 50.5465 5.28192 55.9306 13.3071L43.3472 21.4802C40.6406 17.5651 36.1199 15 31 15C22.7157 15 16 21.7157 16 30C16 38.2843 22.7157 45 31 45C36.4203 45 41.1691 42.1251 43.8047 37.8169L56.3881 45.99Z"/>
</mask>
<path d="M56.3881 45.99L58.0794 47.0575L59.133 45.3881L57.4775 44.3128L56.3881 45.99ZM55.9306 13.3071L57.02 14.9844L58.7224 13.8786L57.5914 12.1928L55.9306 13.3071ZM43.3472 21.4802L41.7021 22.6176L42.8071 24.2159L44.4367 23.1575L43.3472 21.4802ZM43.8047 37.8169L44.8941 36.1396L43.1709 35.0204L42.0987 36.7732L43.8047 37.8169ZM31 62C42.4053 62 52.4153 56.0318 58.0794 47.0575L54.6968 44.9226C49.7345 52.7847 40.9756 58 31 58V62ZM-1 30C-1 47.6731 13.3269 62 31 62V58C15.536 58 3 45.464 3 30H-1ZM31 -2C13.3269 -2 -1 12.3269 -1 30H3C3 14.536 15.536 2 31 2V-2ZM57.5914 12.1928C51.8518 3.63767 42.0846 -2 31 -2V2C40.6955 2 49.2412 6.92616 54.2697 14.4214L57.5914 12.1928ZM44.4367 23.1575L57.02 14.9844L54.8412 11.6298L42.2578 19.803L44.4367 23.1575ZM44.9924 20.3429C41.9283 15.9107 36.8043 13 31 13V17C35.4355 17 39.353 19.2195 41.7021 22.6176L44.9924 20.3429ZM31 13C21.6112 13 14 20.6112 14 30H18C18 22.8203 23.8203 17 31 17V13ZM14 30C14 39.3888 21.6112 47 31 47V43C23.8203 43 18 37.1797 18 30H14ZM31 47C37.1453 47 42.5269 43.738 45.5108 38.8606L42.0987 36.7732C39.8112 40.5121 35.6953 43 31 43V47ZM57.4775 44.3128L44.8941 36.1396L42.7153 39.4942L55.2986 47.6673L57.4775 44.3128Z" fill="#C465FF" mask="url(#path-1-inside-1_267_55)"/>
</svg>
