<svg width="60" height="60" viewBox="0 0 60 60" fill="none" xmlns="http://www.w3.org/2000/svg">
<g clip-path="url(#clip0_25_2)">
<path d="M56.8966 12.2609H49.6552V7.04348C49.6552 8.08696 49.6552 6 49.6552 6C49.6552 6 49.6552 6 48.6207 6H11.3793C12.4138 6 10.3448 6 10.3448 6C10.3448 8.08696 10.3448 6.76673 10.3448 7.04348V12.2609H3.10345C2.28037 12.2609 1.50001 12.2609 1.88691e-06 12.2609C-3.17736e-06 13.1778 3.55584e-06 14.5611 3.55584e-06 15.3913V19.5652C3.55584e-06 22.0559 0.980912 24.4447 2.72694 26.2059C4.47297 27.9671 6.84109 28.9565 9.31035 28.9565H11.0328C12.1213 32.9807 14.4404 36.556 17.6601 39.1737C20.8797 41.7914 24.8359 43.3181 28.9655 43.5365V51.913H21.7241C21.4498 51.913 20.6897 51.913 20.6897 51.913C20.6897 51.913 20.6897 52.6798 20.6897 52.9565C20.6897 53.2333 20.6897 54 20.6897 54C20.6897 54 21.4498 54 21.7241 54H38.2759C38.5502 54 39.3104 54 39.3104 54C39.3104 54 39.3104 53.2333 39.3104 52.9565C39.3104 52.6798 39.3104 51.913 39.3104 51.913C39.3104 51.913 38.5502 51.913 38.2759 51.913H31.0345V43.5339C39.5509 43.08 46.6578 37.0357 48.9078 28.9565H50.6897C53.1589 28.9565 55.527 27.9671 57.2731 26.2059C59.0191 24.4447 60 22.0559 60 19.5652V15.3913C60 14.5611 60 12.2609 60 12.2609C60 12.2609 57.7196 12.2609 56.8966 12.2609ZM9.31035 26.8696C7.38982 26.8696 5.54794 26.1 4.18992 24.7302C2.8319 23.3603 2.06897 21.5024 2.06897 19.5652V15.3913V14.3478H3.10345H10.3448V23.7391C10.3448 24.7302 10.3448 26.8696 10.3448 26.8696H9.31035ZM47.5862 23.5043C47.5862 33.3417 39.6233 41.4052 30 41.4783C25.3359 41.4783 20.8627 39.6093 17.5647 36.2826C14.2666 32.9559 12.4138 28.4438 12.4138 23.7391V8.08696H47.5862V23.5043ZM57.931 19.5652C57.931 20.5244 57.7437 21.4743 57.3798 22.3605C57.0159 23.2467 56.4825 24.0519 55.8101 24.7302C55.1377 25.4084 54.3394 25.9465 53.4608 26.3136C52.5823 26.6806 51.6406 26.8696 50.6897 26.8696H49.6552C49.6552 26.8696 49.6537 24.6321 49.6552 23.5043V14.3478H56.8966C57.1709 14.3478 57.434 14.4578 57.6281 14.6535C57.8221 14.8491 57.931 15.1146 57.931 15.3913V19.5652Z" fill="#20201E"/>
</g>
<defs>
<clipPath id="clip0_25_2">
<rect width="60" height="60" fill="white"/>
</clipPath>
</defs>
</svg>
