<svg width="60" height="37" viewBox="0 0 60 37" fill="none" xmlns="http://www.w3.org/2000/svg">
<g clip-path="url(#clip0_367_4)">
<path d="M7.5 27.75C7.5 28.2407 7.69754 28.7112 8.04918 29.0581C8.40081 29.4051 8.87772 29.6 9.375 29.6C9.87228 29.6 10.3492 29.4051 10.7008 29.0581C11.0525 28.7112 11.25 28.2407 11.25 27.75L11.25 9.25C11.25 8.75935 11.0525 8.28879 10.7008 7.94185C10.3492 7.59491 9.87228 7.4 9.375 7.4C8.87772 7.4 8.40081 7.59491 8.04918 7.94185C7.69754 8.28879 7.5 8.75935 7.5 9.25L7.5 27.75ZM8.82441e-08 29.6C6.48403e-08 31.5626 0.790176 33.4448 2.1967 34.8326C3.60322 36.2204 5.51088 37 7.5 37L52.5 37C54.4891 37 56.3968 36.2204 57.8033 34.8326C59.2098 33.4448 60 31.5626 60 29.6L60 7.4C60 5.4374 59.2098 3.55518 57.8033 2.16741C56.3968 0.779642 54.4891 1.72939e-07 52.5 1.49219e-07L7.5 -3.87401e-07C5.51088 -4.11121e-07 3.60322 0.779642 2.1967 2.16741C0.790176 3.55518 3.7638e-07 5.4374 3.52976e-07 7.4L8.82441e-08 29.6ZM7.5 33.3C6.50544 33.3 5.55161 32.9102 4.84835 32.2163C4.14509 31.5224 3.75 30.5813 3.75 29.6L3.75 7.4C3.75 6.4187 4.14509 5.47759 4.84835 4.78371C5.55161 4.08982 6.50544 3.7 7.5 3.7L52.5 3.7C53.4946 3.7 54.4484 4.08982 55.1517 4.78371C55.8549 5.47759 56.25 6.4187 56.25 7.4L56.25 29.6C56.25 30.5813 55.8549 31.5224 55.1517 32.2163C54.4484 32.9102 53.4946 33.3 52.5 33.3L7.5 33.3Z" fill="white"/>
</g>
<defs>
<clipPath id="clip0_367_4">
<rect width="60" height="37" fill="white"/>
</clipPath>
</defs>
</svg>
